<mxfile host="app.diagrams.net" agent="Mozilla/5.0 (Windows NT 10.0; Win64; x64; rv:131.0) Gecko/20100101 Firefox/131.0" version="24.8.2">
  <diagram name="Страница — 1" id="Ok2LD5h7Bc9uZVGHRvsp">
    <mxGraphModel grid="1" page="1" gridSize="10" guides="1" tooltips="1" connect="1" arrows="1" fold="1" pageScale="1" pageWidth="827" pageHeight="1169" math="0" shadow="0">
      <root>
        <mxCell id="0" />
        <mxCell id="1" parent="0" />
        <mxCell id="jHUUsyZVi5EX4REFBxsW-3" value="" style="edgeStyle=orthogonalEdgeStyle;rounded=0;orthogonalLoop=1;jettySize=auto;html=1;" edge="1" parent="1" source="jHUUsyZVi5EX4REFBxsW-1" target="jHUUsyZVi5EX4REFBxsW-2">
          <mxGeometry relative="1" as="geometry" />
        </mxCell>
        <mxCell id="jHUUsyZVi5EX4REFBxsW-1" value="" style="ellipse;html=1;shape=startState;fillColor=#000000;strokeColor=#ff0000;" vertex="1" parent="1">
          <mxGeometry x="384" y="640" width="30" height="30" as="geometry" />
        </mxCell>
        <mxCell id="jHUUsyZVi5EX4REFBxsW-5" value="" style="edgeStyle=orthogonalEdgeStyle;rounded=0;orthogonalLoop=1;jettySize=auto;html=1;" edge="1" parent="1" source="jHUUsyZVi5EX4REFBxsW-2" target="jHUUsyZVi5EX4REFBxsW-4">
          <mxGeometry relative="1" as="geometry" />
        </mxCell>
        <mxCell id="jHUUsyZVi5EX4REFBxsW-2" value="Receive request to Application" style="rounded=1;whiteSpace=wrap;html=1;" vertex="1" parent="1">
          <mxGeometry x="339" y="720" width="120" height="60" as="geometry" />
        </mxCell>
        <mxCell id="jHUUsyZVi5EX4REFBxsW-7" value="" style="edgeStyle=orthogonalEdgeStyle;rounded=0;orthogonalLoop=1;jettySize=auto;html=1;" edge="1" parent="1" source="jHUUsyZVi5EX4REFBxsW-4" target="jHUUsyZVi5EX4REFBxsW-6">
          <mxGeometry relative="1" as="geometry" />
        </mxCell>
        <mxCell id="jHUUsyZVi5EX4REFBxsW-4" value="Check amount of application pods" style="rounded=1;whiteSpace=wrap;html=1;" vertex="1" parent="1">
          <mxGeometry x="339" y="800" width="120" height="60" as="geometry" />
        </mxCell>
        <mxCell id="jHUUsyZVi5EX4REFBxsW-10" style="edgeStyle=orthogonalEdgeStyle;rounded=0;orthogonalLoop=1;jettySize=auto;html=1;entryX=0.5;entryY=0;entryDx=0;entryDy=0;" edge="1" parent="1" source="jHUUsyZVi5EX4REFBxsW-6" target="jHUUsyZVi5EX4REFBxsW-8">
          <mxGeometry relative="1" as="geometry" />
        </mxCell>
        <mxCell id="jHUUsyZVi5EX4REFBxsW-11" style="edgeStyle=orthogonalEdgeStyle;rounded=0;orthogonalLoop=1;jettySize=auto;html=1;entryX=0.5;entryY=0;entryDx=0;entryDy=0;" edge="1" parent="1" source="jHUUsyZVi5EX4REFBxsW-6" target="jHUUsyZVi5EX4REFBxsW-9">
          <mxGeometry relative="1" as="geometry" />
        </mxCell>
        <mxCell id="jHUUsyZVi5EX4REFBxsW-6" value="Application has active pods?" style="rhombus;whiteSpace=wrap;html=1;" vertex="1" parent="1">
          <mxGeometry x="344" y="880" width="110" height="110" as="geometry" />
        </mxCell>
        <mxCell id="jHUUsyZVi5EX4REFBxsW-13" value="" style="edgeStyle=orthogonalEdgeStyle;rounded=0;orthogonalLoop=1;jettySize=auto;html=1;" edge="1" parent="1" source="jHUUsyZVi5EX4REFBxsW-8" target="jHUUsyZVi5EX4REFBxsW-12">
          <mxGeometry relative="1" as="geometry" />
        </mxCell>
        <mxCell id="jHUUsyZVi5EX4REFBxsW-8" value="Yes" style="rounded=1;whiteSpace=wrap;html=1;" vertex="1" parent="1">
          <mxGeometry x="459" y="965" width="120" height="60" as="geometry" />
        </mxCell>
        <mxCell id="jHUUsyZVi5EX4REFBxsW-9" value="No" style="rounded=1;whiteSpace=wrap;html=1;" vertex="1" parent="1">
          <mxGeometry x="219" y="960" width="120" height="60" as="geometry" />
        </mxCell>
        <mxCell id="jHUUsyZVi5EX4REFBxsW-15" value="" style="edgeStyle=orthogonalEdgeStyle;rounded=0;orthogonalLoop=1;jettySize=auto;html=1;entryX=0.5;entryY=0;entryDx=0;entryDy=0;" edge="1" parent="1" source="jHUUsyZVi5EX4REFBxsW-12" target="jHUUsyZVi5EX4REFBxsW-16">
          <mxGeometry relative="1" as="geometry" />
        </mxCell>
        <mxCell id="jHUUsyZVi5EX4REFBxsW-12" value="Pass request to application" style="rounded=1;whiteSpace=wrap;html=1;" vertex="1" parent="1">
          <mxGeometry x="459" y="1060" width="120" height="60" as="geometry" />
        </mxCell>
        <mxCell id="jHUUsyZVi5EX4REFBxsW-14" value="" style="ellipse;html=1;shape=endState;fillColor=#000000;strokeColor=#ff0000;" vertex="1" parent="1">
          <mxGeometry x="504" y="1250" width="30" height="30" as="geometry" />
        </mxCell>
        <mxCell id="jHUUsyZVi5EX4REFBxsW-17" value="" style="edgeStyle=orthogonalEdgeStyle;rounded=0;orthogonalLoop=1;jettySize=auto;html=1;" edge="1" parent="1" source="jHUUsyZVi5EX4REFBxsW-16" target="jHUUsyZVi5EX4REFBxsW-14">
          <mxGeometry relative="1" as="geometry" />
        </mxCell>
        <mxCell id="jHUUsyZVi5EX4REFBxsW-16" value="Return application response to client" style="rounded=1;whiteSpace=wrap;html=1;" vertex="1" parent="1">
          <mxGeometry x="459" y="1160" width="120" height="60" as="geometry" />
        </mxCell>
        <mxCell id="jHUUsyZVi5EX4REFBxsW-18" value="" style="line;strokeWidth=5;fillColor=none;align=left;verticalAlign=middle;spacingTop=-1;spacingLeft=3;spacingRight=3;rotatable=0;labelPosition=right;points=[];portConstraint=eastwest;strokeColor=inherit;" vertex="1" parent="1">
          <mxGeometry x="-25" y="741" width="160" height="8" as="geometry" />
        </mxCell>
        <mxCell id="jHUUsyZVi5EX4REFBxsW-25" value="" style="edgeStyle=orthogonalEdgeStyle;rounded=0;orthogonalLoop=1;jettySize=auto;html=1;entryX=0.5;entryY=0;entryDx=0;entryDy=0;" edge="1" parent="1" source="jHUUsyZVi5EX4REFBxsW-20" target="jHUUsyZVi5EX4REFBxsW-29">
          <mxGeometry relative="1" as="geometry" />
        </mxCell>
        <mxCell id="jHUUsyZVi5EX4REFBxsW-20" value="Activate application" style="rounded=1;whiteSpace=wrap;html=1;" vertex="1" parent="1">
          <mxGeometry x="-60" y="770" width="120" height="60" as="geometry" />
        </mxCell>
        <mxCell id="UkCTrcRqNKlH00SR7H5w-3" style="edgeStyle=orthogonalEdgeStyle;rounded=0;orthogonalLoop=1;jettySize=auto;html=1;entryX=0.703;entryY=0.094;entryDx=0;entryDy=0;entryPerimeter=0;" edge="1" parent="1" source="jHUUsyZVi5EX4REFBxsW-21" target="jHUUsyZVi5EX4REFBxsW-35">
          <mxGeometry relative="1" as="geometry">
            <mxPoint x="180" y="1120" as="targetPoint" />
          </mxGeometry>
        </mxCell>
        <mxCell id="jHUUsyZVi5EX4REFBxsW-21" value="Buffer request" style="rounded=1;whiteSpace=wrap;html=1;" vertex="1" parent="1">
          <mxGeometry x="75" y="770" width="120" height="60" as="geometry" />
        </mxCell>
        <mxCell id="jHUUsyZVi5EX4REFBxsW-22" value="" style="edgeStyle=orthogonalEdgeStyle;rounded=0;orthogonalLoop=1;jettySize=auto;html=1;" edge="1" parent="1">
          <mxGeometry relative="1" as="geometry">
            <mxPoint x="-15" y="751" as="sourcePoint" />
            <mxPoint x="-10" y="770" as="targetPoint" />
            <Array as="points" />
          </mxGeometry>
        </mxCell>
        <mxCell id="jHUUsyZVi5EX4REFBxsW-23" value="" style="edgeStyle=orthogonalEdgeStyle;rounded=0;orthogonalLoop=1;jettySize=auto;html=1;" edge="1" parent="1">
          <mxGeometry relative="1" as="geometry">
            <mxPoint x="125" y="749" as="sourcePoint" />
            <mxPoint x="125" y="770" as="targetPoint" />
            <Array as="points" />
          </mxGeometry>
        </mxCell>
        <mxCell id="jHUUsyZVi5EX4REFBxsW-28" style="edgeStyle=orthogonalEdgeStyle;rounded=0;orthogonalLoop=1;jettySize=auto;html=1;exitX=0;exitY=0.5;exitDx=0;exitDy=0;entryX=0.5;entryY=0;entryDx=0;entryDy=0;" edge="1" parent="1" source="jHUUsyZVi5EX4REFBxsW-24" target="jHUUsyZVi5EX4REFBxsW-26">
          <mxGeometry relative="1" as="geometry" />
        </mxCell>
        <mxCell id="jHUUsyZVi5EX4REFBxsW-34" style="edgeStyle=orthogonalEdgeStyle;rounded=0;orthogonalLoop=1;jettySize=auto;html=1;exitX=1;exitY=0.5;exitDx=0;exitDy=0;entryX=0.5;entryY=0;entryDx=0;entryDy=0;" edge="1" parent="1" source="jHUUsyZVi5EX4REFBxsW-24" target="jHUUsyZVi5EX4REFBxsW-32">
          <mxGeometry relative="1" as="geometry" />
        </mxCell>
        <mxCell id="jHUUsyZVi5EX4REFBxsW-24" value="Is application active?" style="rhombus;whiteSpace=wrap;html=1;" vertex="1" parent="1">
          <mxGeometry x="-55" y="935" width="110" height="110" as="geometry" />
        </mxCell>
        <mxCell id="jHUUsyZVi5EX4REFBxsW-31" style="edgeStyle=orthogonalEdgeStyle;rounded=0;orthogonalLoop=1;jettySize=auto;html=1;exitX=0.25;exitY=0;exitDx=0;exitDy=0;entryX=0;entryY=0.5;entryDx=0;entryDy=0;" edge="1" parent="1" source="jHUUsyZVi5EX4REFBxsW-26" target="jHUUsyZVi5EX4REFBxsW-29">
          <mxGeometry relative="1" as="geometry" />
        </mxCell>
        <mxCell id="jHUUsyZVi5EX4REFBxsW-26" value="No" style="rounded=1;whiteSpace=wrap;html=1;" vertex="1" parent="1">
          <mxGeometry x="-160" y="1025" width="120" height="60" as="geometry" />
        </mxCell>
        <mxCell id="jHUUsyZVi5EX4REFBxsW-30" value="" style="edgeStyle=orthogonalEdgeStyle;rounded=0;orthogonalLoop=1;jettySize=auto;html=1;" edge="1" parent="1" source="jHUUsyZVi5EX4REFBxsW-29" target="jHUUsyZVi5EX4REFBxsW-24">
          <mxGeometry relative="1" as="geometry" />
        </mxCell>
        <mxCell id="jHUUsyZVi5EX4REFBxsW-29" value="Wait until application will start" style="rounded=1;whiteSpace=wrap;html=1;" vertex="1" parent="1">
          <mxGeometry x="-60" y="850" width="120" height="60" as="geometry" />
        </mxCell>
        <mxCell id="jHUUsyZVi5EX4REFBxsW-37" value="" style="edgeStyle=orthogonalEdgeStyle;rounded=0;orthogonalLoop=1;jettySize=auto;html=1;entryX=0.063;entryY=0;entryDx=0;entryDy=0;entryPerimeter=0;" edge="1" parent="1" source="jHUUsyZVi5EX4REFBxsW-32" target="jHUUsyZVi5EX4REFBxsW-35">
          <mxGeometry relative="1" as="geometry" />
        </mxCell>
        <mxCell id="jHUUsyZVi5EX4REFBxsW-32" value="Yes" style="rounded=1;whiteSpace=wrap;html=1;" vertex="1" parent="1">
          <mxGeometry x="20" y="1045" width="120" height="60" as="geometry" />
        </mxCell>
        <mxCell id="UkCTrcRqNKlH00SR7H5w-1" style="edgeStyle=orthogonalEdgeStyle;rounded=0;orthogonalLoop=1;jettySize=auto;html=1;entryX=0;entryY=0.5;entryDx=0;entryDy=0;" edge="1" parent="1" source="jHUUsyZVi5EX4REFBxsW-35" target="jHUUsyZVi5EX4REFBxsW-12">
          <mxGeometry relative="1" as="geometry">
            <Array as="points">
              <mxPoint x="150" y="1160" />
              <mxPoint x="290" y="1160" />
              <mxPoint x="290" y="1090" />
            </Array>
          </mxGeometry>
        </mxCell>
        <mxCell id="jHUUsyZVi5EX4REFBxsW-35" value="" style="line;strokeWidth=5;fillColor=none;align=left;verticalAlign=middle;spacingTop=-1;spacingLeft=3;spacingRight=3;rotatable=0;labelPosition=right;points=[];portConstraint=eastwest;strokeColor=inherit;" vertex="1" parent="1">
          <mxGeometry x="70" y="1130" width="160" height="8" as="geometry" />
        </mxCell>
        <mxCell id="UkCTrcRqNKlH00SR7H5w-2" style="edgeStyle=orthogonalEdgeStyle;rounded=0;orthogonalLoop=1;jettySize=auto;html=1;entryX=0.525;entryY=0.25;entryDx=0;entryDy=0;entryPerimeter=0;exitX=0.5;exitY=1;exitDx=0;exitDy=0;" edge="1" parent="1" source="jHUUsyZVi5EX4REFBxsW-9" target="jHUUsyZVi5EX4REFBxsW-18">
          <mxGeometry relative="1" as="geometry">
            <mxPoint x="300" y="1091" as="sourcePoint" />
            <Array as="points">
              <mxPoint x="280" y="1040" />
              <mxPoint x="210" y="1040" />
              <mxPoint x="210" y="691" />
              <mxPoint x="59" y="691" />
            </Array>
          </mxGeometry>
        </mxCell>
      </root>
    </mxGraphModel>
  </diagram>
</mxfile>
